<svg width="100" height="125" viewBox="0 0 100 125" fill="none" xmlns="http://www.w3.org/2000/svg">
<path d="M29 58.5C29 70.08 38.42 79.5 50 79.5C61.58 79.5 71 70.08 71 58.5C71 46.92 61.58 37.5 50 37.5C38.42 37.5 29 46.92 29 58.5ZM63 58.5C63 65.67 57.17 71.5 50 71.5C42.83 71.5 37 65.67 37 58.5C37 51.33 42.83 45.5 50 45.5C57.17 45.5 63 51.33 63 58.5Z" fill="#FDF9F7"/>
<path d="M78 37.5C79.2 37.5 80.38 36.96 81.17 35.94C82.52 34.19 82.2 31.68 80.45 30.33C72.23 23.99 61.42 20.5 50.01 20.5C38.6 20.5 27.79 23.99 19.57 30.33C17.82 31.68 17.5 34.19 18.85 35.94C20.2 37.69 22.71 38.01 24.46 36.66C31.29 31.39 40.37 28.49 50.02 28.49C59.67 28.49 68.75 31.39 75.58 36.66C76.31 37.22 77.17 37.49 78.02 37.49L78 37.5Z" fill="#FDF9F7"/>
</svg>
