<svg width="110" height="135" viewBox="0 0 110 135" fill="none" xmlns="http://www.w3.org/2000/svg">
<path d="M67.9381 58.438H54.1101C53.3093 58.4341 52.6608 57.7857 52.6569 56.9849V55.5357H69.18C70.0315 55.5201 70.7152 54.8248 70.7152 53.9732C70.7152 53.1216 70.0316 52.4263 69.18 52.4107H52.6569V49.5084H69.18C70.0432 49.5084 70.7425 48.8092 70.7425 47.9459C70.7425 47.0826 70.0432 46.3834 69.18 46.3834H52.6569V43.4811H69.18C70.0432 43.4811 70.7425 42.7819 70.7425 41.9186C70.7425 41.0592 70.0432 40.3561 69.18 40.3561H52.6569V37.4577H69.18C70.0432 37.4577 70.7425 36.7546 70.7425 35.8952C70.7425 35.0319 70.0432 34.3327 69.18 34.3327H52.6569V31.4304H69.18C70.0354 31.4148 70.7191 30.7195 70.7191 29.8679C70.7191 29.0124 70.0355 28.3171 69.18 28.3054H52.6569V26.8601C52.6569 26.4734 52.8093 26.1062 53.0827 25.8328C53.3562 25.5594 53.7234 25.407 54.11 25.407H67.938C70.4458 25.3758 72.4614 23.3367 72.4614 20.8289C72.4614 18.3211 70.4458 16.282 67.938 16.2508H49.126C46.1182 16.2469 43.2315 17.4422 41.1104 19.5789C38.7784 21.8875 37.4737 25.032 37.4854 28.3133V96.3133C37.4971 100.419 40.8174 103.739 44.9229 103.751C49.1924 103.747 52.6534 100.286 52.6573 96.0164V69.0474C52.6573 68.6607 52.8097 68.2935 53.0831 68.0201C53.3566 67.7467 53.7237 67.5943 54.1104 67.5943H67.9384C70.4462 67.5631 72.4618 65.524 72.4618 63.0162C72.4618 60.5084 70.4459 58.4692 67.9381 58.438ZM45.1411 96.157C44.2856 96.1414 43.6019 95.4422 43.6019 94.5867C43.6019 93.7312 44.2855 93.032 45.1411 93.0164C45.9965 93.032 46.6802 93.7312 46.6802 94.5867C46.6802 95.4422 45.9966 96.1414 45.1411 96.157ZM44.1879 25.798C44.602 25.798 45.0004 25.9621 45.2934 26.255C45.5864 26.548 45.7505 26.9464 45.7505 27.3605V35.0011C45.7505 35.8644 45.0512 36.5636 44.188 36.5636C43.3247 36.5636 42.6255 35.8644 42.6255 35.0011V27.3605C42.6216 26.9465 42.7856 26.5441 43.0786 26.2511C43.3715 25.9581 43.7738 25.7941 44.1879 25.798ZM42.6254 40.407C42.6372 39.5515 43.3325 38.8679 44.1879 38.8679C45.0434 38.8679 45.7387 39.5515 45.7504 40.407V43.8445C45.7504 44.7078 45.0512 45.407 44.1879 45.407C43.3247 45.407 42.6254 44.7078 42.6254 43.8445V40.407Z" fill="#FDF9F7"/>
</svg>
