<svg width="58" height="91" viewBox="0 0 58 91" fill="none" xmlns="http://www.w3.org/2000/svg">
<path d="M52.5712 27.6433L28.6612 4.72332C26.2551 2.41094 23.2193 0.861225 19.9352 0.268864C16.6511 -0.323496 13.2651 0.0679243 10.2028 1.39395C7.14041 2.71997 4.53824 4.92145 2.72318 7.72179C0.908125 10.5221 -0.0388531 13.7964 0.00122126 17.1333V27.2933C0.00599154 29.5633 0.468009 31.809 1.3597 33.8965C2.2514 35.984 3.55449 37.8705 5.19122 39.4433L11.0012 45.0133L5.20122 50.5733C3.58026 52.1274 2.28548 53.9891 1.39262 56.0496C0.499752 58.11 0.02673 60.3279 0.00122126 62.5733V72.9433C-0.0288574 76.2759 0.925348 79.5433 2.74425 82.3359C4.56316 85.1286 7.16585 87.3223 10.2261 88.642C13.2864 89.9618 16.6682 90.349 19.9476 89.7551C23.227 89.1612 26.2582 87.6126 28.6612 85.3033L52.5712 62.3733C54.2167 60.7893 55.5261 58.89 56.4212 56.7887C57.3164 54.6874 57.7789 52.4273 57.7812 50.1433V39.8733C57.7789 37.5893 57.3164 35.3292 56.4212 33.228C55.5261 31.1267 54.2167 29.2273 52.5712 27.6433ZM47.2412 46.5433L23.3312 69.4733C22.4553 70.3131 21.4226 70.9722 20.2919 71.4128C19.1613 71.8535 17.955 72.0672 16.7418 72.0417C15.5286 72.0161 14.3323 71.7519 13.2212 71.264C12.1101 70.7762 11.106 70.0742 10.2662 69.1983C9.42642 68.3224 8.76736 67.2896 8.32668 66.159C7.88601 65.0284 7.67233 63.8221 7.69787 62.6089C7.72341 61.3957 7.98765 60.1994 8.47551 59.0883C8.96338 57.9772 9.6653 56.9731 10.5412 56.1333L27.5412 39.8733L10.5412 23.6233C8.77223 21.9273 7.74944 19.5979 7.69787 17.1478C7.6463 14.6976 8.57016 12.3273 10.2662 10.5583C11.9623 8.78932 14.2916 7.76654 16.7418 7.71497C19.1919 7.66339 21.5622 8.58726 23.3312 10.2833L47.2412 33.2033C48.1395 34.0665 48.8543 35.1022 49.3425 36.2484C49.8307 37.3945 50.0824 38.6275 50.0824 39.8733C50.0824 41.1191 49.8307 42.3521 49.3425 43.4983C48.8543 44.6444 48.1395 45.6802 47.2412 46.5433Z" fill="#FDF9F7"/>
</svg>
