<svg width="100" height="125" viewBox="0 0 100 125" fill="none" xmlns="http://www.w3.org/2000/svg">
<path d="M94.7001 58.1C86.1001 54.9 75.8001 57.2 72.7001 58.1C69.6001 59 67.4001 59.3 67.4001 59.3C66.5001 59.4 65.6001 59.4 64.7001 59.3C64.7001 59.3 62.5001 59 59.4001 58.1C56.3001 57.2 46.1001 54.9 37.4001 58.1C34.8001 59.3 33.7001 60 35.5001 63C37.4001 66 37.4001 77.7 48.8001 77.7C60.2001 77.7 62.6001 70.3 62.6001 67.1C62.6001 66.7 62.6001 66.3 62.7001 65.9C63.0001 64.3 64.5001 63.1 66.1001 63.1C67.7001 63.1 69.2001 64.2 69.5001 65.9C69.6001 66.2 69.6001 66.6 69.6001 67.1C69.6001 70.3 71.9001 77.7 83.4001 77.7C94.9001 77.7 94.8001 66.1 96.7001 63C98.4001 60 97.3001 59.4 94.7001 58.1Z" fill="#FDF9F7"/>
<path d="M25.3 39.3L24 25.2C23.8 23.5 22.4 22.3 20.8 22.3H12.1C10.4 22.3 9 23.6 8.9 25.2L7.6 39.3C4.5 41.9 2.5 45.7 2.5 50C2.5 54.3 4.5 58.1 7.6 60.7L8.9 74.8C9.1 76.5 10.5 77.7 12.1 77.7H20.8C22.5 77.7 23.9 76.4 24 74.8L25.3 60.7C28.4 58.1 30.4 54.3 30.4 50C30.4 45.7 28.4 41.9 25.3 39.3ZM16.5 60.1C10.9 60.1 6.4 55.6 6.4 50C6.4 44.4 10.9 39.9 16.5 39.9C22.1 39.9 26.6 44.4 26.6 50C26.6 55.6 22.1 60.1 16.5 60.1Z" fill="#FDF9F7"/>
<path d="M20.6 48.1H18.3V44.4C18.3 43.3 17.4 42.5 16.4 42.5C15.4 42.5 14.5 43.4 14.5 44.4V50C14.5 51.1 15.4 51.9 16.4 51.9H20.6C21.7 51.9 22.5 51 22.5 50C22.6 48.9 21.7 48.1 20.6 48.1Z" fill="#FDF9F7"/>
<path d="M40.7999 48.3C44.4999 51.4 52.2999 47.5 58.2999 43.6C57.8999 42.7 57.5999 41.7 57.5999 40.7V32.5C57.5999 31.4 57.8999 30.5 58.2999 29.6C52.2999 25.7 44.4999 21.8 40.7999 24.9C36.5999 28.4 37.9999 32.3 39.4999 34.6C40.2999 35.8 40.2999 37.4 39.4999 38.6C37.8999 40.9 36.4999 44.8 40.7999 48.3Z" fill="#FDF9F7"/>
<path d="M73.8 43.6C79.8 47.5 87.6 51.4 91.3 48.3C95.5 44.8 94.1 40.9 92.7 38.6C91.9 37.4 91.9 35.8 92.7 34.6C94.2 32.3 95.5 28.4 91.3 24.9C87.6 21.8 79.8 25.7 73.8 29.6C74.2 30.5 74.5 31.5 74.5 32.5V40.7C74.5 41.7 74.2 42.7 73.8 43.6Z" fill="#FDF9F7"/>
<path d="M64.1999 43.5H67.7999C69.3999 43.5 70.5999 42.2 70.5999 40.7V32.5C70.5999 30.9 69.2999 29.7 67.7999 29.7H64.1999C62.5999 29.7 61.3999 31 61.3999 32.5V40.7C61.3999 42.2 62.6999 43.5 64.1999 43.5Z" fill="#FDF9F7"/>
</svg>
