<svg width="110" height="135" viewBox="0 0 110 135" fill="none" xmlns="http://www.w3.org/2000/svg">
<path fill-rule="evenodd" clip-rule="evenodd" d="M55.6135 18.0043C63.2854 17.9496 68.7815 21.684 69.8595 26.3637C69.8829 31.0551 66.7384 35.6059 61.7853 37.0087C59.6291 37.6064 57.1408 37.7978 54.508 37.8408C50.4728 31.4033 47.3713 28.997 39.699 27.0478C39.8943 26.2626 40.156 25.454 40.5115 24.622C42.199 21.8408 49.5623 18.0439 55.6165 18.0087L55.6135 18.0043ZM38.8865 26.1488C37.6677 30.2816 38.3435 33.7582 37.5467 37.0278L36.8045 37.6763C36.7381 37.6099 36.6756 37.5395 36.6131 37.4731C36.8748 37.1294 37.0193 36.7153 37.0154 36.2856C37.0154 35.1958 36.1131 34.309 34.9959 34.309C33.8826 34.309 32.9764 35.1958 32.9764 36.2856C32.9764 37.3755 33.8787 38.2622 34.9959 38.2622C35.2811 38.2622 35.5623 38.2037 35.824 38.0904C35.8982 38.1724 35.9725 38.2505 36.0506 38.3326L28.8006 44.6412C28.7146 44.5552 28.6326 44.4654 28.5467 44.3755C28.8006 44.0357 28.9373 43.6255 28.9373 43.2075C28.9373 42.1177 28.035 41.2309 26.9178 41.2309C25.8045 41.2309 24.8983 42.1177 24.8983 43.2075C24.8983 44.2974 25.8006 45.1841 26.9178 45.1841C27.2108 45.1841 27.4998 45.1216 27.7655 45.0045C27.8592 45.106 27.953 45.2037 28.0467 45.3013L22.7029 49.9497C23.031 49.231 22.906 48.3364 22.281 47.7309C21.6443 47.1137 20.699 47.0044 19.949 47.3755L38.8865 26.1488ZM39.4841 28.0121C46.7888 29.8676 49.5231 31.9066 53.3201 37.848C50.9685 37.848 48.5193 37.766 46.1013 37.766C46.0232 37.766 45.949 37.7816 45.8787 37.8168C44.0506 38.6918 42.4412 39.7113 41.0154 40.848C39.6912 40.1292 38.5154 39.2777 37.5232 38.3714L38.3591 37.6448C38.4333 37.5784 38.488 37.4925 38.5114 37.3948C39.3005 34.301 38.8747 31.3246 39.4841 28.0121ZM70.4181 29.1371L72.504 39.4531C71.5118 40.1602 70.6017 40.9687 69.7306 41.8086L40.1796 74.9216C40.1484 74.9568 39.871 75.3513 39.6328 75.699C39.2226 75.8591 38.8124 76.0154 38.4023 76.1638C37.3593 71.4216 35.3085 66.6755 30.5116 61.8708C30.914 60.4763 31.3281 59.0974 31.7733 57.738C32.5038 58.0778 33.25 58.4099 34.0078 58.7302C33.8515 59.7693 34.6367 60.9919 36.0039 60.9919C37.1172 60.9919 38.0234 60.1052 38.0234 59.0153C38.0234 57.9255 37.121 57.0387 36.0039 57.0387C35.371 57.0387 34.7772 57.3278 34.3983 57.8199C33.6132 57.484 32.8397 57.1403 32.0897 56.7847C32.914 54.3628 33.8514 52.0269 35.0116 49.8433C35.957 50.2418 36.9608 50.609 38.0273 50.9722C37.9648 51.9488 38.7148 53.0855 40.0429 53.0855C41.1562 53.0855 42.0623 52.1988 42.0623 51.1089C42.0623 50.0191 41.16 49.1323 40.0429 49.1323C39.3593 49.1323 38.7186 49.4722 38.3475 50.0347C37.3319 49.6909 36.3788 49.3433 35.4881 48.9722C36.9609 46.3824 38.7811 44.0308 41.1443 42.0386C42.0623 42.4956 43.0427 42.8901 44.0818 43.2066C44.0858 44.2964 44.9881 45.1793 46.1013 45.1793C47.2146 45.1793 48.1209 44.2926 48.1209 43.2027C48.1209 42.1129 47.2185 41.2261 46.1013 41.2261C45.367 41.2261 44.6911 41.6167 44.3357 42.2456C43.5232 41.9956 42.746 41.6909 42.0077 41.3471C43.2655 40.3862 44.6639 39.5151 46.2343 38.7573C51.7187 38.7691 57.4412 39.2339 62.0583 37.9566C66.2849 36.7886 69.2731 34.1793 70.4216 29.1363L70.4181 29.1371ZM85.8981 35.7933C93.5114 35.7386 98.9841 39.4183 100.117 44.0472C99.5078 50.8597 96.3398 53.6136 92.0663 54.7932C89.9101 55.3909 87.4218 55.5823 84.789 55.6253C80.7382 49.1683 77.6328 46.7659 69.91 44.8133C70.0858 43.9851 70.3202 43.1453 70.6561 42.2977C74.7928 38.3055 80.6522 35.8289 85.8981 35.7899L85.8981 35.7933ZM36.7611 39.0316C37.7494 39.9418 38.9017 40.7972 40.1947 41.5316C37.8509 43.5785 36.0345 45.9691 34.5619 48.5746C32.6439 47.7035 30.9994 46.6957 29.515 45.3363L36.7611 39.0316ZM69.1711 43.9378C67.9523 48.0706 68.6282 51.5472 67.8313 54.8168L67.0891 55.4653C67.0227 55.3989 66.9602 55.3285 66.8977 55.2621C67.1594 54.9184 67.304 54.5043 67.3001 54.0746C67.3001 52.9848 66.3977 52.098 65.2806 52.098C64.1673 52.098 63.2611 52.9848 63.2611 54.0746C63.2611 55.1644 64.1634 56.0512 65.2806 56.0512C65.5657 56.0512 65.847 55.9926 66.1048 55.8794C66.179 55.9614 66.2532 56.0395 66.3313 56.1215L59.0813 62.4301C58.9954 62.3403 58.9134 62.2544 58.8274 62.1645C59.0813 61.8247 59.218 61.4145 59.218 60.9965C59.218 59.9067 58.3157 59.0199 57.1985 59.0199C56.0852 59.0199 55.1791 59.9066 55.1791 60.9965C55.1791 62.0863 56.0814 62.9731 57.1985 62.9731C57.4915 62.9731 57.7806 62.9106 58.0462 62.7934C58.14 62.895 58.2337 62.9927 58.3275 63.0903L52.9837 67.7387C53.3118 67.0278 53.1907 66.141 52.5774 65.5356C51.9407 64.9067 50.9876 64.7895 50.2297 65.1645L69.1711 43.9378ZM69.7336 45.7933C77.0695 47.6488 79.8036 49.6878 83.6086 55.6371C81.257 55.6371 78.8078 55.5551 76.3898 55.5551C76.3117 55.5551 76.2375 55.5707 76.1672 55.6059C74.3391 56.4809 72.7297 57.5004 71.3039 58.6371C69.9797 57.9183 68.8039 57.0668 67.8117 56.1605L68.6476 55.4339C68.7218 55.3675 68.7765 55.2816 68.7999 55.1839C69.5539 52.2269 69.2219 49.0901 69.7336 45.7933ZM28.7606 45.9925C30.3348 47.4417 32.0809 48.5198 34.0887 49.4378C32.9325 51.6253 31.9949 53.9495 31.1707 56.3401C28.0223 54.7776 25.2605 53.0081 23.1043 50.9104L28.7606 45.9925ZM100.702 46.9261C101.502 52.2581 103.166 57.4531 103.971 62.7781C102.182 70.3679 94.6273 78.8371 85.0611 85.4191C79.9713 88.923 74.3151 91.8957 68.6901 93.9543C67.6471 89.2121 65.5963 84.466 60.7956 79.6613C61.198 78.2668 61.612 76.8879 62.0573 75.5285C62.7878 75.8684 63.5339 76.2004 64.2917 76.5207C64.1355 77.5598 64.9206 78.7824 66.2878 78.7824C67.4011 78.7824 68.3073 77.8957 68.3073 76.8058C68.3073 75.716 67.405 74.8292 66.2878 74.8292C65.655 74.8292 65.0612 75.1183 64.6823 75.6105C63.8972 75.2745 63.1237 74.9308 62.3737 74.5793C63.1979 72.1574 64.1354 69.8176 65.2956 67.634C66.2409 68.0324 67.2448 68.3996 68.3112 68.7629C68.2487 69.7394 68.9987 70.8762 70.3268 70.8762C71.4401 70.8762 72.3463 69.9895 72.3463 68.8996C72.3463 67.8098 71.444 66.923 70.3268 66.923C69.6432 66.923 69.0026 67.2628 68.6315 67.8253C67.6159 67.4816 66.6627 67.1339 65.7721 66.7628C67.2448 64.173 69.0651 61.8214 71.4283 59.8292C72.3463 60.2862 73.3267 60.6808 74.3658 60.9972C74.3697 62.087 75.2721 62.9699 76.3853 62.9699C77.4986 62.9699 78.4048 62.0832 78.4048 60.9933C78.4048 59.9035 77.5025 59.0167 76.3853 59.0167C75.6509 59.0167 74.9751 59.4073 74.6197 60.0362C73.8072 59.7823 73.0299 59.4815 72.2916 59.1378C73.5494 58.1768 74.9478 57.3058 76.5182 56.548C82.0026 56.5597 87.7252 57.0245 92.3422 55.7472C96.5688 54.5792 99.557 51.966 100.706 46.9269L100.702 46.9261ZM18.9516 48.4847C18.7172 49.141 18.8422 49.9378 19.4047 50.5081C19.979 51.0902 20.7953 51.2269 21.4633 51.0199L19.5883 52.6527L14.1821 54.4183C14.0728 54.344 13.9634 54.2737 13.854 54.1995L18.9516 48.4847ZM22.3461 51.5745C24.6391 53.8245 27.5531 55.6761 30.85 57.2972C30.3539 58.7972 29.9008 60.3206 29.4594 61.848C29.4086 62.0199 29.4594 62.2035 29.5883 62.3324C33.8656 66.5355 35.893 70.6136 37.0141 74.7464C31.2446 67.7152 23.9871 61.1804 15.2441 55.1414L20.0097 53.5555C20.0761 53.536 20.1347 53.5008 20.1855 53.4579L22.3461 51.5745ZM13.1859 54.9417C23.0453 61.5628 31.0489 68.7777 37.2089 76.5827C32.2558 78.2819 27.3573 79.2546 22.9199 79.2272C15.1269 79.1843 8.75592 75.4069 6.33792 67.2862C6.79886 64.4307 8.17382 61.2471 10.6777 57.7471L13.1859 54.9417ZM67.0449 56.8206C68.0332 57.7347 69.1855 58.5862 70.4785 59.3206C68.1347 61.3675 66.3183 63.7581 64.8457 66.3636C62.9277 65.4925 61.2832 64.4847 59.7988 63.1253L67.0449 56.8206ZM59.0449 63.7815C60.6191 65.2307 62.3652 66.3088 64.373 67.2268C63.2168 69.4143 62.2792 71.7424 61.455 74.133C58.3066 72.5705 55.5448 70.801 53.3886 68.7033L59.0449 63.7815ZM104.166 65.5549C104.189 70.6447 102.303 75.0158 99.1307 79.0859C94.6463 84.8398 87.5447 89.9379 79.6737 95.2889C74.1034 98.9803 66.9977 101.68 58.2987 102.004C50.0135 101.875 42.7717 99.1951 39.0997 94.6482C37.4825 92.6443 36.5216 90.2732 36.4552 87.5544C39.4552 94.5583 45.8107 97.9684 53.2052 98.0074C63.3652 98.0621 75.5682 93.1558 85.6392 86.2264C94.3111 80.2616 101.416 72.8049 104.166 65.5549ZM49.2359 66.2698C49.0055 66.9104 49.1226 67.6917 49.6617 68.262C50.2359 68.8674 51.0679 69.012 51.7476 68.8049L49.8726 70.4377L44.4664 72.2033C44.357 72.1291 44.2477 72.0588 44.1383 71.9846L49.2359 66.2698ZM52.6304 69.3596C54.9234 71.6096 57.8374 73.4612 61.1343 75.0823C60.6382 76.5823 60.1851 78.1057 59.7437 79.6331C59.6929 79.805 59.7437 79.9885 59.8726 80.1175C64.1499 84.3206 66.1773 88.3987 67.2984 92.5315C61.5211 85.4885 54.2474 78.9415 45.4824 72.8945L50.291 71.3437C50.3574 71.3241 50.416 71.289 50.4668 71.246L52.6304 69.3596ZM6.16542 69.7619C9.16542 76.7658 15.5209 80.1759 22.9154 80.2149C27.8607 80.2423 33.2864 79.0938 38.7204 77.1094C37.4196 79.2539 36.5329 81.3047 36.0212 83.2422C33.2946 83.9102 30.5993 84.25 28.0134 84.211C19.7282 84.0821 12.4864 81.4024 8.81442 76.8555C7.19722 74.8516 6.23632 72.4805 6.16992 69.7617L6.16542 69.7619ZM43.4704 72.7267C53.3298 79.3478 61.3334 86.5627 67.4934 94.3677C62.5403 96.0669 57.6418 97.0396 53.2044 97.0122C45.4114 96.9693 39.0404 93.1919 36.6224 85.0712C37.0834 82.2157 38.4583 79.0321 40.9622 75.5321L43.4704 72.7267Z" fill="#FDF9F7"/>
</svg>
