<svg width="110" height="135" viewBox="0 0 110 135" fill="none" xmlns="http://www.w3.org/2000/svg">
<path fill-rule="evenodd" clip-rule="evenodd" d="M17.3669 59.992C17.3669 39.211 34.2109 22.367 54.9919 22.367C75.7729 22.367 92.6249 37.312 92.6249 58.273C92.6249 64.9761 87.1874 70.414 80.4839 70.414H75.4448C71.2807 70.414 67.9057 73.789 67.9057 77.9531V84.7109C67.9057 91.8437 62.1245 97.6249 54.9917 97.6249C34.2107 97.6249 17.3669 80.781 17.3669 59.992ZM35.3979 64.1639C33.0932 64.1639 31.226 62.2967 31.226 59.992C31.226 57.6873 33.0932 55.8279 35.3979 55.8279C37.7026 55.8279 39.562 57.6951 39.562 59.992C39.562 62.2889 37.6948 64.1639 35.3979 64.1639ZM39.7026 42.9139C39.7026 45.2108 41.5698 47.078 43.8745 47.078C46.1792 47.078 48.0386 45.2108 48.0386 42.9139C48.0386 40.617 46.1714 38.7498 43.8745 38.7498C41.5776 38.7498 39.7026 40.6092 39.7026 42.9139ZM44.9526 72.1169C47.1714 72.7107 48.4917 74.9997 47.8979 77.2185C47.3041 79.4451 45.0151 80.7576 42.7963 80.1638C40.5697 79.5701 39.2494 77.2888 39.851 75.0622C40.4447 72.8356 42.726 71.5231 44.9526 72.1169ZM68.6796 58.7419C63.4218 58.7419 59.1562 54.4763 59.1562 49.2107C59.1562 43.9451 63.4218 39.6795 68.6796 39.6795C73.9374 39.6795 78.2108 43.9451 78.2108 49.2107C78.2108 54.4763 73.9452 58.7419 68.6796 58.7419Z" fill="#FDF9F7"/>
</svg>
