<svg width="110" height="135" viewBox="0 0 110 135" fill="none" xmlns="http://www.w3.org/2000/svg">
<path d="M79.8439 27.75C79.2501 27.1562 78.4689 26.8125 77.6251 26.8125H66.4691C65.1566 26.8125 64.0629 27.5938 63.5941 28.7187C63.4378 29.0937 63.3441 29.5312 63.3441 29.9375C63.3441 34.6563 59.5003 38.5 54.8129 38.5C50.0941 38.5 46.2504 34.6562 46.2504 29.9375C46.2504 29.0938 45.9066 28.3125 45.3441 27.75C44.7816 27.1562 44.0003 26.8125 43.1253 26.8125H31.9693C31.1256 26.8125 30.3443 27.1562 29.7505 27.7188L12.1565 45.3128C10.9377 46.5316 10.9377 48.5002 12.1565 49.7189L28.8445 66.438V90.063C28.8445 91.7818 30.2507 93.188 31.9695 93.188H77.6255C79.3443 93.188 80.7505 91.7818 80.7505 90.063V67.282L97.8445 50.157C99.0633 48.9382 99.0633 46.9695 97.8445 45.7508L79.8439 27.75ZM55.0319 76.781C53.3131 76.781 51.8757 75.3748 51.8757 73.656C51.8757 71.9372 53.2819 70.531 55.0007 70.531H55.0319C56.7507 70.531 58.1569 71.9372 58.1569 73.656C58.1569 75.3748 56.7507 76.781 55.0319 76.781ZM55.0631 65.843C53.3443 65.843 51.9069 64.468 51.9069 62.718C51.9069 60.9992 53.3131 59.593 55.0319 59.593H55.0632C56.782 59.593 58.1882 60.9992 58.1882 62.718C58.1882 64.468 56.7819 65.843 55.0631 65.843ZM55.0631 54.937C53.3443 54.937 51.9069 53.5308 51.9069 51.812C51.9069 50.0932 53.3131 48.687 55.0319 48.687H55.0632C56.782 48.687 58.1882 50.0932 58.1882 51.812C58.1882 53.5308 56.7819 54.937 55.0631 54.937Z" fill="#FDF9F7"/>
</svg>
