<svg width="110" height="135" viewBox="0 0 110 135" fill="none" xmlns="http://www.w3.org/2000/svg">
<path d="M87.0309 108.594C87.0465 108.953 86.9215 109.328 86.6559 109.594C86.3903 109.844 86.0309 110 85.6715 110H60.7185C59.9998 110 59.406 109.438 59.3591 108.719L58.906 102.328H86.765L87.0309 108.594Z" fill="#FDF9F7"/>
<path d="M51.094 102.328L50.6409 108.719C50.594 109.437 50.0003 110 49.2815 110H24.3285C23.9691 110 23.6098 109.844 23.3441 109.578C23.0785 109.312 22.9379 108.953 22.9691 108.594L23.2348 102.328L51.094 102.328Z" fill="#FDF9F7"/>
<path d="M77.75 10V14.9062H55.031H54.9997H54.9685H32.0625V10H77.75Z" fill="#FDF9F7"/>
<path d="M38.656 18.1406V21.2812C38.656 28.25 33.5935 34.0622 26.968 35.2342L33.9836 18.1402L38.656 18.1406Z" fill="#FDF9F7"/>
<path d="M86.625 99.109H58.687L56.6089 69.281V18.14H68.1249V21.2806C68.1249 30.3587 75.1093 37.8276 83.9999 38.6086L86.625 99.109Z" fill="#FDF9F7"/>
<path d="M53.3911 18.1406V69.2816L51.313 99.1096H23.375L26 38.6096C34.875 37.8284 41.875 30.3596 41.875 21.2816V18.141L53.3911 18.1406Z" fill="#FDF9F7"/>
<path d="M83.0469 35.234C76.4063 34.0465 71.3589 28.2496 71.3589 21.281V18.1404H76.0308L83.0469 35.234Z" fill="#FDF9F7"/>
</svg>
